<!--?xml version="1.0" standalone="no"?-->
              <svg id="sw-js-blob-svg" viewBox="0 0 100 100" xmlns="http://www.w3.org/2000/svg" version="1.1">
                    <defs> 
                        <linearGradient id="sw-gradient" x1="0" x2="1" y1="1" y2="0">
                            <stop id="stop1" stop-color="rgba(68, 109, 182, 1)" offset="0%"></stop>
                            <stop id="stop2" stop-color="rgba(251, 168, 31, 1)" offset="100%"></stop>
                        </linearGradient>
                    </defs>
                <path fill="none" d="M23.4,-37.2C29.4,-32.5,32.6,-24.5,35.8,-16.6C38.9,-8.8,42,-1.1,41.9,6.7C41.8,14.5,38.6,22.6,33.1,28.5C27.7,34.5,20,38.3,12.3,39.4C4.6,40.4,-3.1,38.8,-11.3,37C-19.4,35.3,-28,33.4,-33.1,28.3C-38.3,23.1,-40.1,14.6,-41.2,6C-42.3,-2.5,-42.7,-11.1,-39.2,-17.5C-35.7,-24,-28.3,-28.3,-21.2,-32.4C-14,-36.5,-7,-40.3,0.9,-41.6C8.7,-42.9,17.4,-41.8,23.4,-37.2Z" width="100%" height="100%" transform="translate(50 50)" stroke-width="1" style="transition: all 0.3s ease 0s;" stroke="rgba(68, 109, 182, 1)"></path>
              </svg>